<?xml version="1.0" encoding="UTF-8" standalone="no"?>
<!DOCTYPE svg PUBLIC "-//W3C//DTD SVG 20010904//EN" "http://www.w3.org/TR/2001/REC-SVG-20010904/DTD/svg10.dtd">
<svg version="1.0" xmlns="http://www.w3.org/2000/svg" width="256.000000pt" height="256.000000pt" viewBox="0 0 256.000000 256.000000" preserveAspectRatio="xMidYMid meet">

<g transform="translate(0.000000,256.000000) scale(0.100000,-0.100000)" fill="#000000" stroke="none">
<path d="M834 2503 c-27 -32 -51 -61 -54 -65 -3 -5 -4 8 -2 27 7 56 -6 41 -29 -36 -24 -80 -41 -92 -113 -83 -65 9 -127 -3 -161 -32 l-30 -26 35 7 c35 6 35 6 -16 -27 -68 -44 -107 -78 -130 -114 -18 -29 -18 -29 2 -12 18 15 85 48 99 48 11 0 4 -47 -10 -67 -9 -13 -40 -39 -70 -59 -68 -44 -81 -63 -26 -35 81 42 193 17 275 -59 49 -46 62 -72 22 -47 l-24 16 5 -39 c5 -35 2 -43 -31 -76 -27 -27 -31 -35 -16 -31 52 14 23 -39 -58 -107 -59 -48 -76 -74 -30 -46 31 18 78 27 78 14 0 -3 -27 -32 -61 -65 -59 -60 -99 -113 -99 -135 0 -7 18 6 40 27 46 44 85 56 56 17 -40 -55 -86 -167 -86 -209 l0 -44 29 61 c27 58 46 82 57 72 2 -3 -3 -22 -12 -43 -19 -46 -15 -192 6 -240 l13 -30 8 59 c4 41 13 64 25 73 17 13 20 11 26 -24 4 -21 7 -78 8 -128 0 -49 4 -118 9 -151 10 -68 48 -138 79 -146 19 -5 19 -4 5 30 -47 112 77 214 201 166 16 -6 18 -3 11 27 -20 99 -38 156 -57 176 -25 27 -33 23 -42 -19 -5 -26 -9 -30 -16 -18 -5 8 -10 31 -11 50 -1 19 -3 27 -6 18 -11 -44 -23 -11 -23 65 0 56 -3 77 -10 67 -14 -21 -13 14 1 81 24 111 -35 131 -65 22 l-16 -58 5 80 c2 45 7 89 11 98 9 25 -23 33 -46 12 -35 -32 -22 3 30 80 28 41 50 77 50 80 0 4 -10 3 -22 0 -17 -5 -9 7 30 47 56 58 64 73 32 65 -11 -3 -20 -1 -20 4 0 5 12 11 28 15 80 18 100 26 106 40 10 27 7 34 -16 34 -21 0 -20 2 8 19 39 24 64 58 64 88 0 16 4 21 15 17 19 -8 19 0 -1 37 -22 44 -12 45 24 4 17 -19 34 -35 36 -35 8 0 -6 33 -27 63 -10 16 -17 31 -14 34 14 13 80 -22 126 -67 27 -28 54 -50 59 -50 9 0 5 26 -13 88 -12 36 8 25 49 -28 38 -50 58 -61 36 -20 -6 12 -9 28 -6 37 4 8 -10 34 -33 61 -42 51 -71 102 -71 127 0 19 19 20 26 0 12 -31 26 -15 20 23 -9 57 -59 161 -101 210 -40 46 -71 57 -60 21 9 -28 -2 -85 -21 -104 -30 -30 -37 -18 -32 55 3 39 2 70 -3 70 -4 0 -29 -26 -55 -57z m67 -155 c27 -29 79 -119 79 -137 0 -7 -18 3 -41 24 -26 23 -44 33 -48 26 -5 -7 -18 -7 -46 0 -41 12 -149 8 -162 -5 -5 -4 1 -14 11 -22 75 -54 95 -96 60 -125 -12 -10 -20 -10 -35 -1 -27 17 -48 14 -25 -3 21 -16 21 -17 -12 -34 -26 -14 -20 -31 11 -31 19 -1 20 -2 7 -13 -9 -7 -15 -22 -14 -34 1 -13 -4 -23 -10 -23 -84 1 -60 263 31 348 60 55 155 70 194 30z"/>
<path d="M1103 2540 c6 -25 -12 -26 -54 -4 -52 27 -44 8 25 -57 37 -34 77 -76 89 -93 l22 -31 -29 23 c-37 29 -43 22 -23 -25 14 -33 39 -163 32 -171 -1 -1 -14 7 -28 19 -15 11 -27 18 -27 16 0 -3 25 -37 54 -75 30 -39 66 -91 79 -115 l23 -45 13 46 c10 37 27 61 85 117 102 100 125 166 91 266 -23 66 -135 183 -135 140 0 -6 4 -13 10 -16 5 -3 15 -16 21 -27 8 -15 -1 -11 -33 15 -44 36 -47 37 -133 37 -82 0 -87 -1 -82 -20z"/>
<path d="M1529 2518 c42 -41 81 -94 81 -110 0 -5 -6 -8 -14 -8 -12 0 -31 18 -118 111 -31 33 -42 21 -14 -15 33 -43 33 -53 1 -32 -33 22 -31 10 5 -38 25 -33 30 -49 30 -96 0 -65 -16 -92 -106 -178 -56 -54 -84 -102 -84 -144 0 -18 4 -14 20 17 17 34 63 75 84 75 3 0 -2 -16 -10 -35 -7 -19 -14 -44 -14 -56 0 -20 2 -19 34 9 35 31 144 87 153 79 8 -9 -27 -67 -47 -80 -11 -6 -20 -15 -20 -19 0 -9 77 18 107 37 12 8 29 12 38 9 14 -6 12 -11 -11 -35 l-28 -29 40 0 c27 0 35 -3 25 -9 -11 -7 -5 -11 22 -16 33 -6 53 -25 27 -25 -18 0 -11 -28 16 -59 14 -17 59 -47 100 -67 41 -19 72 -40 69 -45 -4 -5 -1 -9 5 -9 21 0 73 -42 61 -50 -8 -5 -7 -15 4 -36 8 -16 15 -38 15 -48 0 -14 -8 -7 -30 22 -21 30 -37 42 -55 42 -21 0 -25 -5 -25 -29 0 -60 -29 -88 -31 -28 0 31 -1 32 -10 7 -28 -68 -54 -112 -100 -166 -53 -63 -79 -113 -78 -148 0 -20 1 -19 12 4 15 31 47 69 68 81 11 5 4 -16 -21 -67 -21 -41 -43 -103 -49 -138 -13 -74 -15 -214 -3 -201 5 6 18 48 30 95 18 69 28 90 55 113 31 26 32 27 41 8 12 -28 0 -82 -35 -147 -16 -31 -27 -59 -25 -61 4 -4 131 77 170 107 136 109 145 112 82 25 -39 -52 -40 -56 -14 -45 44 21 175 164 214 234 31 57 38 81 42 142 5 81 -13 147 -48 179 -11 10 -17 22 -14 26 9 16 70 10 119 -12 25 -11 49 -19 51 -16 8 8 -70 83 -103 101 -49 25 -47 33 9 56 l53 21 -60 -6 c-33 -2 -82 -7 -110 -10 -49 -6 -50 -6 -19 8 49 23 114 66 114 76 0 5 -14 3 -31 -6 -43 -21 -142 -32 -217 -22 -70 8 -94 19 -42 19 130 0 213 95 194 224 l-8 51 -7 -42 c-9 -49 -25 -83 -40 -83 -7 0 -7 16 -2 48 22 131 -3 287 -55 334 -22 20 -24 20 -18 4 12 -35 19 -163 9 -169 -6 -4 -26 17 -46 46 -65 96 -167 186 -275 241 -69 35 -80 33 -42 -10 35 -41 33 -55 -4 -30 -60 39 -117 66 -138 66 -20 0 -18 -4 21 -42z m275 -143 c42 -18 76 -66 104 -150 39 -116 37 -209 -6 -248 -17 -15 -18 -14 -17 18 2 34 -8 45 -20 25 -3 -5 -13 -10 -21 -10 -10 0 -7 12 13 49 28 49 26 82 -2 45 -14 -17 -15 -14 -9 34 7 57 0 67 -18 25 l-11 -28 -12 45 c-14 53 -48 122 -68 138 -12 10 -16 8 -22 -15 -8 -36 -63 -93 -88 -93 -13 0 -17 5 -13 15 7 20 -8 19 -28 -1 -41 -40 5 63 48 109 28 31 79 56 112 57 12 0 38 -7 58 -15z"/>
<path d="M1179 2083 c12 -23 29 -38 37 -31 2 3 -8 15 -22 29 -25 23 -26 23 -15 2z"/>
<path d="M399 2011 c-43 -9 -106 -46 -119 -71 -18 -34 -12 -41 21 -25 17 9 42 15 57 13 42 -5 31 -50 -32 -128 -51 -62 -93 -130 -81 -130 4 0 17 13 31 29 14 17 48 39 77 50 173 65 217 98 217 163 0 32 -6 46 -31 69 -17 16 -39 29 -48 29 -9 0 -25 2 -36 4 -11 2 -36 1 -56 -3z"/>
<path d="M1075 1933 c4 -10 10 -28 12 -40 5 -20 1 -23 -29 -23 -19 0 -43 -7 -54 -16 -19 -15 -18 -15 3 -9 12 3 37 -1 57 -9 38 -16 96 -87 96 -118 0 -12 4 -16 11 -12 14 8 5 123 -12 156 -14 29 -70 88 -82 88 -5 0 -6 -8 -2 -17z"/>
<path d="M1382 1902 c-48 -71 -67 -163 -42 -202 8 -12 10 -10 10 10 0 53 78 138 133 147 49 8 29 23 -30 23 -46 0 -50 5 -28 34 18 24 19 36 3 36 -7 0 -28 -22 -46 -48z"/>
<path d="M1261 1779 c-2 -48 -30 -123 -52 -140 -21 -16 -21 -17 -4 -43 12 -18 20 -56 24 -114 l7 -87 12 69 c15 78 34 121 62 138 19 12 19 13 -5 33 -21 17 -27 33 -34 95 -5 41 -9 63 -10 49z"/>
<path d="M747 1766 c-29 -27 -40 -70 -35 -136 l4 -45 13 33 c25 61 52 26 32 -42 -18 -59 -16 -67 24 -130 31 -48 36 -66 36 -112 0 -54 9 -80 61 -179 12 -23 23 -72 28 -120 4 -44 16 -100 26 -125 9 -25 20 -82 24 -128 4 -55 11 -88 22 -99 14 -13 49 -16 211 -19 230 -4 229 -5 246 108 6 36 25 95 41 130 21 44 30 76 29 108 -1 25 2 53 6 63 7 17 4 17 -36 -4 -38 -19 -63 -22 -179 -25 -102 -3 -129 -1 -110 7 14 6 46 9 73 6 51 -4 54 -3 32 19 -30 31 -19 61 33 85 64 30 112 67 112 86 0 8 -6 13 -12 10 -7 -2 -56 -14 -110 -26 l-96 -22 -94 45 c-52 25 -100 46 -107 46 -23 0 22 -61 75 -100 58 -43 106 -98 101 -113 -7 -21 -73 -47 -117 -47 -62 1 -177 56 -157 76 4 4 13 2 19 -4 15 -15 58 -16 58 -2 0 6 -10 10 -22 10 -38 0 -84 36 -107 82 -36 76 -28 85 32 35 51 -44 114 -77 146 -77 9 0 -8 11 -38 25 -72 34 -125 78 -146 121 -16 34 -16 37 1 55 22 24 31 24 39 -2 8 -25 63 -89 77 -89 6 0 -4 17 -22 37 -42 47 -62 94 -48 111 6 7 34 12 67 12 51 1 54 2 37 15 -26 20 -59 19 -99 -2 -30 -15 -31 -15 -18 1 44 53 120 60 171 16 50 -42 55 -37 18 19 -41 61 -69 65 -153 20 -31 -17 -63 -28 -71 -25 -30 12 -55 69 -50 113 5 35 1 50 -19 79 -24 36 -35 104 -16 104 12 0 44 -41 91 -117 28 -44 51 -68 79 -83 41 -20 41 -20 79 -1 l37 20 -51 1 c-87 0 -164 73 -164 153 0 53 -57 66 -103 23z m277 -736 c24 -9 26 -15 26 -65 0 -32 -4 -55 -11 -55 -11 0 -37 55 -46 101 -6 32 -5 33 31 19z m426 -31 c-5 -17 -17 -43 -26 -56 -12 -19 -13 -27 -5 -33 9 -5 8 -10 -2 -19 -18 -15 -27 12 -27 87 l0 52 34 0 c34 0 34 -1 26 -31z m-257 1 c5 -4 14 -29 21 -56 l12 -49 7 42 c8 50 45 83 93 83 45 0 57 -26 52 -106 -3 -50 -1 -64 10 -64 10 0 12 -8 7 -32 -12 -58 -16 -67 -35 -73 -27 -9 -39 1 -33 25 4 15 0 20 -16 20 -15 0 -21 -5 -19 -16 2 -10 -3 -19 -11 -22 -8 -3 -11 0 -7 6 11 19 -30 32 -101 32 -39 0 -74 5 -81 12 -8 8 -10 2 -5 -25 5 -32 3 -37 -14 -37 -35 0 -53 33 -60 106 l-6 69 23 -30 c13 -16 27 -34 31 -38 4 -5 4 12 2 37 -3 24 -3 64 1 88 l6 43 58 -3 c31 -2 61 -7 65 -12z m-63 -246 c0 -8 -4 -14 -10 -14 -5 0 -10 9 -10 21 0 11 5 17 10 14 6 -3 10 -13 10 -21z m130 7 c0 -5 -24 -8 -54 -7 -30 0 -52 4 -49 9 6 10 103 9 103 -2z"/>
<path d="M1575 1769 c-90 -20 -148 -67 -169 -136 -4 -13 -12 -23 -17 -23 -13 0 -59 -46 -59 -60 0 -6 11 -3 25 6 22 14 32 15 91 3 61 -12 69 -12 102 6 44 24 75 68 93 131 10 33 23 53 44 66 l30 18 -50 -1 c-27 -1 -68 -5 -90 -10z m60 -41 c-17 -78 -68 -132 -136 -143 -64 -11 -67 8 -7 40 69 36 106 71 113 106 4 16 13 29 22 29 11 0 13 -7 8 -32z m-69 8 c8 -21 -24 -72 -53 -85 -38 -18 -75 -14 -71 7 2 11 11 16 27 14 27 -4 71 33 71 60 0 21 18 24 26 4z"/>
<path d="M420 1754 c-65 -18 -118 -52 -171 -112 -48 -55 -50 -68 -4 -41 32 19 55 19 55 -1 0 -5 -25 -26 -55 -47 -30 -21 -58 -47 -61 -58 -11 -31 -6 -81 11 -121 31 -74 18 -121 -54 -209 -39 -47 -59 -99 -48 -127 3 -8 8 -4 15 12 12 30 71 100 83 100 5 0 -9 -29 -32 -65 -62 -99 -87 -191 -80 -300 l2 -40 23 68 c23 70 67 126 118 153 l27 14 -25 -43 c-13 -23 -36 -78 -49 -122 -24 -73 -42 -119 -67 -168 -9 -17 -8 -17 19 -4 35 19 58 43 121 130 27 38 60 76 72 84 22 16 23 15 17 -8 -3 -13 -8 -46 -12 -74 -8 -62 -33 -169 -48 -204 -6 -14 -25 -41 -41 -60 l-31 -33 35 17 c19 10 54 33 78 52 24 20 45 33 48 30 10 -10 -47 -188 -77 -239 -17 -29 -54 -77 -82 -106 l-52 -54 38 16 c88 36 137 95 223 270 56 114 127 195 193 222 l42 17 -40 41 c-45 46 -55 67 -77 169 -12 55 -22 78 -44 97 -33 30 -50 84 -50 162 0 31 -4 59 -9 62 -12 8 -21 -45 -21 -130 0 -41 -4 -74 -8 -74 -28 0 -49 256 -28 340 l9 35 -28 -33 c-15 -18 -29 -31 -32 -28 -11 11 23 97 63 162 50 81 55 98 19 64 -57 -53 -32 19 35 100 20 25 45 57 55 73 17 26 17 27 -1 26 -11 0 -44 -7 -74 -15z"/>
<path d="M875 1747 c23 -75 72 -118 144 -125 34 -3 51 -9 51 -18 0 -8 9 -14 20 -14 13 0 28 -12 38 -31 31 -56 43 -68 30 -30 -40 122 -138 211 -256 234 -31 6 -33 5 -27 -16z m72 -37 c13 -36 38 -48 65 -31 23 14 38 7 38 -20 0 -15 -7 -19 -35 -19 -43 0 -105 50 -105 86 0 32 23 22 37 -16z"/>
<path d="M1726 1752 c-3 -9 -14 -57 -26 -107 -28 -121 -27 -118 -51 -143 -27 -29 -69 -28 -115 3 -76 52 -115 44 -158 -30 -32 -54 -29 -71 4 -24 13 17 38 38 57 46 31 12 38 12 71 -4 22 -11 55 -43 82 -80 49 -67 60 -75 60 -42 0 20 34 87 50 99 20 15 34 62 34 114 1 65 19 87 30 35 3 -18 9 -30 11 -27 8 8 8 90 0 126 -8 39 -41 62 -49 34z"/>
<path d="M2279 1530 c-1 -8 -1 -35 0 -60 1 -25 -2 -56 -7 -70 -8 -22 -3 -32 50 -89 68 -73 117 -166 143 -271 18 -75 38 -89 24 -17 -15 83 -60 250 -75 278 -19 39 -18 43 8 19 12 -11 26 -20 31 -20 11 0 7 5 -85 116 -37 44 -72 92 -77 105 -6 15 -10 18 -12 9z"/>
<path d="M1455 1454 c-23 -23 -12 -28 24 -10 29 16 31 15 47 -9 16 -24 15 -45 -1 -90 -7 -20 -6 -20 9 -1 9 11 16 34 16 50 l0 31 20 -25 c31 -39 34 -64 11 -107 -20 -40 -58 -78 -122 -120 -19 -13 -29 -23 -22 -23 6 0 39 21 73 48 112 84 102 79 94 46 -10 -45 -51 -102 -86 -121 l-33 -17 25 -6 c19 -5 29 -2 42 14 15 18 15 13 -3 -44 -23 -71 -38 -220 -22 -220 17 0 53 89 60 148 3 31 9 50 12 42 2 -8 10 12 17 45 6 33 15 76 19 95 8 33 7 34 -10 20 -17 -14 -18 -13 -11 5 29 76 6 175 -55 230 -42 38 -78 44 -104 19z"/>
<path d="M1501 1297 c-13 -21 -12 -21 5 -5 10 10 16 20 13 22 -3 3 -11 -5 -18 -17z"/>
<path d="M2231 1284 c-25 -68 -192 -219 -308 -278 -37 -18 -44 -6 -18 28 32 43 12 34 -37 -16 -59 -60 -147 -111 -181 -106 -19 3 -23 11 -28 58 -3 30 -6 47 -7 38 -5 -47 -47 -133 -84 -169 -22 -21 -35 -39 -28 -39 6 0 22 -12 35 -26 32 -34 32 -74 0 -161 -13 -37 -23 -68 -21 -70 1 -1 16 16 32 38 74 102 103 135 136 153 46 25 64 17 78 -35 20 -72 -9 -165 -72 -232 -19 -20 -34 -37 -31 -37 2 0 27 12 55 26 62 32 142 90 183 134 34 36 73 61 60 38 -72 -122 -163 -208 -363 -341 -89 -60 -162 -110 -162 -111 0 -4 180 38 290 68 151 41 283 99 336 147 67 62 12 -42 -86 -162 l-35 -43 34 20 c63 36 154 138 193 215 20 41 40 90 43 109 17 91 76 146 91 85 12 -47 0 -89 -63 -220 l-14 -30 26 30 c39 44 90 160 110 249 17 77 17 255 0 316 l-7 25 20 -25 c20 -23 56 -132 66 -195 2 -16 2 6 -1 50 -8 128 -30 224 -72 310 -39 81 -124 195 -145 195 -7 0 -18 -16 -25 -36z"/>
<path d="M718 904 c-35 -19 -48 -43 -48 -93 0 -33 6 -46 38 -75 20 -20 40 -36 44 -36 5 0 21 -19 38 -42 26 -36 30 -49 30 -110 0 -83 -20 -128 -90 -202 -26 -28 -53 -62 -60 -76 -10 -19 -3 -16 34 17 50 44 120 83 149 83 22 0 21 -5 -8 -65 -28 -57 -31 -83 -11 -91 22 -8 68 20 143 86 67 60 117 82 257 116 28 7 28 7 12 -18 -9 -14 -34 -39 -57 -57 -22 -18 -38 -35 -35 -38 6 -6 144 68 206 110 58 41 77 56 114 93 101 101 117 178 52 255 -14 17 -29 41 -32 55 -8 29 -24 22 -24 -12 0 -13 -4 -24 -9 -24 -4 0 -4 -18 2 -39 9 -32 8 -42 -6 -56 -9 -9 -17 -26 -17 -39 0 -12 -7 -31 -15 -42 -14 -18 -14 -18 -15 6 -1 23 -2 24 -13 6 -25 -38 -49 -67 -54 -62 -3 2 0 14 7 25 7 13 7 21 1 21 -6 0 -15 -9 -21 -20 -11 -21 -79 -63 -120 -75 l-25 -7 24 25 c13 14 21 32 18 39 -4 9 -6 9 -6 1 -1 -13 -38 -35 -81 -48 -24 -7 -24 -7 -7 12 22 25 11 37 -17 18 -26 -19 -56 -21 -38 -3 7 7 12 19 12 26 0 10 -9 6 -25 -12 -26 -28 -51 -35 -41 -11 3 8 3 15 0 15 -3 0 -12 -7 -20 -15 -26 -25 -35 -17 -28 25 8 49 -8 53 -35 9 -28 -46 -36 -17 -12 46 21 55 19 70 -5 38 -19 -27 -26 -10 -7 17 10 14 19 46 21 72 3 44 1 48 -28 63 -19 10 -30 22 -27 30 4 8 -6 15 -26 20 l-32 7 25 9 25 10 -25 14 c-33 19 -98 18 -132 -1z"/>
<path d="M640 647 c-60 -34 -123 -80 -152 -112 -25 -27 -64 -116 -97 -221 -8 -23 -30 -60 -51 -83 -21 -22 -36 -41 -33 -41 13 0 61 32 82 54 27 29 53 37 29 9 -23 -26 -65 -113 -76 -158 -25 -99 -25 -95 7 -95 24 0 36 9 62 45 49 68 149 128 149 90 0 -17 -18 -56 -29 -65 -18 -13 -51 -70 -42 -70 6 0 40 20 76 44 42 29 80 47 110 52 46 6 131 1 141 -9 12 -11 -18 -48 -54 -66 -50 -27 -26 -26 109 5 204 46 349 100 450 168 l54 37 -54 -51 c-30 -27 -48 -50 -40 -50 22 0 164 65 237 108 71 42 189 148 178 159 -3 4 -12 1 -18 -5 -7 -7 -27 -12 -46 -12 l-35 0 6 43 c2 23 21 68 41 101 20 33 36 69 36 80 -1 16 -5 13 -20 -14 -42 -80 -110 -120 -162 -96 -12 5 -22 -2 -40 -27 -36 -53 -136 -134 -214 -172 -64 -31 -201 -72 -210 -62 -3 2 14 23 36 46 56 58 35 51 -51 -17 -41 -32 -95 -70 -120 -85 -91 -53 -163 -23 -125 52 20 38 8 40 -32 6 -61 -51 -132 -66 -132 -26 0 18 30 70 71 122 44 55 79 133 79 173 0 31 -23 96 -34 96 -1 0 -4 -23 -5 -52 -3 -82 -61 -159 -92 -121 -22 26 -13 94 21 161 17 34 30 66 28 71 -2 4 -19 -1 -38 -12z"/>
</g>
</svg>